<svg width="44" height="44" viewBox="0 0 44 44" fill="none" xmlns="http://www.w3.org/2000/svg">
<rect width="44" height="44" rx="5" fill="white"/>
<path d="M13 13.1758L15.08 13.5316L16.043 24.8715C16.12 25.7976 16.903 26.5082 17.843 26.5053H28.752C29.649 26.5072 30.41 25.8549 30.537 24.9772L31.486 18.4953C31.592 17.7708 31.083 17.0987 30.351 16.9939C30.287 16.9851 15.414 16.9801 15.414 16.9801" stroke="#363853" stroke-width="1.5" stroke-linecap="round" stroke-linejoin="round"/>
<path d="M24.375 20.6334H27.1479" stroke="#363853" stroke-width="1.5" stroke-linecap="round" stroke-linejoin="round"/>
<path fill-rule="evenodd" clip-rule="evenodd" d="M17.4043 29.9316C17.7053 29.9316 17.9482 30.1729 17.9482 30.4696C17.9482 30.7673 17.7053 31.0085 17.4043 31.0085C17.1033 31.0085 16.8604 30.7673 16.8604 30.4696C16.8604 30.1729 17.1033 29.9316 17.4043 29.9316Z" fill="#363853" stroke="#363853" stroke-width="1.5" stroke-linecap="round" stroke-linejoin="round"/>
<path fill-rule="evenodd" clip-rule="evenodd" d="M28.6846 29.9316C28.9856 29.9316 29.2296 30.1729 29.2296 30.4696C29.2296 30.7673 28.9856 31.0085 28.6846 31.0085C28.3836 31.0085 28.1406 30.7673 28.1406 30.4696C28.1406 30.1729 28.3836 29.9316 28.6846 29.9316Z" fill="#363853" stroke="#363853" stroke-width="1.5" stroke-linecap="round" stroke-linejoin="round"/>
</svg>
