<svg xmlns="http://www.w3.org/2000/svg" fill="none" viewBox="0 0 39 39"><circle cx="19.5" cy="19.5" r="19.5" fill="#ECECEC"/><path fill="#31352B" d="M29.526 12.98a8.437 8.437 0 0 1-2.422.652 4.196 4.196 0 0 0 1.85-2.319 8.304 8.304 0 0 1-2.67 1.017A4.195 4.195 0 0 0 23.212 11a4.205 4.205 0 0 0-4.206 4.208c0 .326.04.652.104.965a11.954 11.954 0 0 1-8.673-4.403 4.177 4.177 0 0 0-.573 2.124c0 1.46.743 2.748 1.875 3.505a4.244 4.244 0 0 1-1.902-.535v.051a4.207 4.207 0 0 0 3.372 4.13 4.456 4.456 0 0 1-1.107.143c-.274 0-.533-.027-.795-.064a4.214 4.214 0 0 0 3.933 2.918 8.43 8.43 0 0 1-5.223 1.798c-.352 0-.678-.012-1.016-.052a11.911 11.911 0 0 0 6.46 1.888c7.736 0 11.97-6.41 11.97-11.972 0-.182 0-.365-.013-.547a9.062 9.062 0 0 0 2.11-2.176z"/></svg>